<svg width="7" height="9" viewBox="0 0 7 9" fill="none" xmlns="http://www.w3.org/2000/svg">
<path d="M6.37663 1.28599H6.50627C6.58027 1.28599 6.64352 1.31106 6.69601 1.3612C6.7485 1.41134 6.78086 1.47659 6.79309 1.55694L6.99674 2.84261C7.00917 2.93647 6.98608 3.02186 6.92747 3.09878C6.86887 3.17571 6.79329 3.21417 6.70074 3.21417H6.24757L5.88676 8.69851C5.88064 8.78551 5.84976 8.8575 5.79411 8.9145C5.73846 8.9715 5.67058 9 5.59046 9H1.40954C1.32942 9 1.26154 8.9715 1.20589 8.9145C1.15024 8.8575 1.11936 8.78551 1.11324 8.69851L0.752427 3.21417H0.299258C0.206711 3.21417 0.131133 3.17571 0.0725262 3.09878C0.0139192 3.02186 -0.00916845 2.93647 0.00326334 2.84261L0.206908 1.55694C0.21934 1.47659 0.251702 1.41134 0.303994 1.3612C0.356287 1.31106 0.419531 1.28599 0.493727 1.28599H0.623373L0.55855 0.341666C0.55855 0.247813 0.587853 0.167458 0.64646 0.100604C0.705068 0.0337488 0.774429 0.000214278 0.854545 0H6.13628C6.22271 0 6.29513 0.0335345 6.35354 0.100604C6.41195 0.167673 6.43819 0.248027 6.43227 0.341666L6.37663 1.28599ZM5.77546 1.28599L5.82164 0.643156H1.17807L1.21507 1.28599H5.77517H5.77546ZM0.706547 2.57166H6.3491L6.25645 1.92882H0.743547L0.6509 2.57166H0.706547ZM1.34471 3.21449L1.68688 8.35717H5.31282L5.65499 3.21449H1.34442H1.34471Z" fill="#A4A6B3"/>
</svg>
