<svg width="7" height="17" viewBox="0 0 7 17" fill="none" xmlns="http://www.w3.org/2000/svg">
<path d="M5.99017 8.09632C6.68522 8.67274 6.6912 9.67446 5.98474 10.2633C6.32195 10.5423 6.51254 10.8969 6.51363 11.3368C6.51472 11.7767 6.32738 12.1248 5.97659 12.4162C6.06473 12.4951 6.14814 12.5791 6.22638 12.6677C6.4167 12.9059 6.51872 13.2018 6.51526 13.5059C6.51526 14.0138 6.52232 14.5222 6.51526 15.0301C6.49788 16.1031 5.68934 16.9078 4.60658 16.9191C3.707 16.9299 2.80687 16.9299 1.9062 16.9191C0.820184 16.9056 0.0138166 16.0912 0.00241337 15.0101C-0.00301672 14.5152 0.00241337 14.0208 0.00241337 13.5259C-0.00185365 13.332 0.0360046 13.1394 0.113407 12.9613C0.19081 12.7832 0.305936 12.6238 0.450938 12.494C0.473745 12.4729 0.495465 12.4497 0.517185 12.427C0.517185 12.4243 0.517186 12.4189 0.520444 12.399C0.191924 12.1259 0.00132782 11.7707 0.00458587 11.3303C0.00784392 10.8899 0.190294 10.5418 0.538363 10.2595C0.198982 9.97454 0.00621437 9.6221 0.00404233 9.18007C0.0018703 8.73804 0.19301 8.38507 0.528046 8.10387C0.433563 7.99593 0.340708 7.90633 0.262515 7.80379C0.0954216 7.58802 0.00525775 7.32316 0.00621483 7.05088C0.00621483 6.61586 -0.0307104 6.17869 0.0768053 5.74853C0.177805 5.34213 0.402611 5.00318 0.642621 4.66909C1.00535 4.15636 1.36591 3.64201 1.71126 3.15356C1.60266 2.98679 1.49895 2.83836 1.40663 2.68454C1.37901 2.63269 1.36483 2.57482 1.36537 2.51615C1.36211 2.2328 1.35016 1.94891 1.36862 1.66717C1.37914 1.47616 1.4605 1.2958 1.59699 1.16093C1.73349 1.02606 1.91542 0.946257 2.10766 0.936931C2.33246 0.921279 2.55944 0.929374 2.78588 0.928834C3.28327 0.928834 3.78121 0.928834 4.27861 0.928834C4.82162 0.931533 5.15502 1.264 5.15937 1.80588C5.15937 1.93163 5.15339 2.05793 5.15937 2.18368C5.17946 2.55069 5.12244 2.88532 4.77655 3.11308C5.02633 3.46768 5.27068 3.81094 5.51124 4.15798C5.75179 4.50502 5.99451 4.84127 6.21715 5.1964C6.41234 5.52298 6.51497 5.89598 6.51417 6.27584C6.51997 6.52303 6.51997 6.77023 6.51417 7.01742C6.51517 7.20471 6.47641 7.39011 6.40044 7.5615C6.32446 7.7329 6.21297 7.88645 6.07325 8.01212C6.04773 8.03587 6.02329 8.06177 5.99017 8.09632ZM0.813125 12.8944C0.638276 13.0666 0.549223 13.2485 0.546508 13.4773C0.541078 14.0257 0.528589 14.5751 0.551395 15.1224C0.579089 15.7852 1.14165 16.3557 1.80303 16.3702C2.76597 16.3918 3.72926 16.3918 4.69292 16.3702C5.37603 16.3546 5.93641 15.7906 5.96411 15.1138C5.98583 14.5708 5.98148 14.0257 5.96682 13.4822C5.95433 13.0132 5.61821 12.6899 5.14688 12.6872C3.88927 12.6807 2.63166 12.6845 1.37405 12.6872C1.16716 12.6816 0.966137 12.7559 0.813125 12.8944ZM0.749594 7.59924C0.935345 7.74902 1.168 7.82941 1.40718 7.82646H5.11158C5.1524 7.82627 5.19319 7.82393 5.23376 7.81944C5.62364 7.78112 5.93207 7.49237 5.95922 7.10431C5.97985 6.80908 5.96845 6.51062 5.95922 6.21539C5.95516 5.9255 5.86712 5.64293 5.70563 5.40149C5.22127 4.69176 4.72822 3.98959 4.23082 3.28741C4.21575 3.27265 4.19783 3.26108 4.17814 3.25338C4.15845 3.24568 4.1374 3.24202 4.11625 3.24261C3.54609 3.24261 2.97593 3.2383 2.40631 3.24261C2.37751 3.24564 2.3496 3.25436 2.32423 3.26826C2.29887 3.28217 2.27656 3.30097 2.25861 3.32357C1.84756 3.89783 1.4441 4.47641 1.03304 5.05068C0.8229 5.3459 0.612212 5.64815 0.580175 6.01624C0.548231 6.39629 0.543695 6.77813 0.566599 7.15882C0.575288 7.31048 0.685519 7.45351 0.749594 7.59924ZM0.780544 11.903C0.951049 12.0795 1.16825 12.1442 1.40772 12.1442C2.63854 12.1442 3.86936 12.1442 5.10018 12.1442C5.15465 12.1439 5.20905 12.1403 5.26308 12.1334C5.46968 12.1074 5.65817 12.003 5.78912 11.8421C5.92008 11.6811 5.98336 11.4761 5.96573 11.2699C5.92447 10.8208 5.58237 10.5267 5.09366 10.5256C3.87189 10.5256 2.65012 10.5256 1.42835 10.5256C1.37865 10.5251 1.32896 10.5276 1.27957 10.5332C0.948334 10.5726 0.714298 10.7463 0.59918 11.0545C0.484062 11.3627 0.551937 11.6585 0.780544 11.903ZM0.831587 8.55994C0.576916 8.80929 0.494922 9.11693 0.57583 9.39542C0.619594 9.56498 0.719514 9.71496 0.859491 9.82119C0.999469 9.92742 1.17135 9.98372 1.34745 9.98102C2.61809 9.98912 3.88818 9.98426 5.15828 9.98426C5.19905 9.98391 5.23973 9.9803 5.27991 9.97346C5.47043 9.94861 5.64473 9.8539 5.76862 9.70792C5.98583 9.44562 6.03578 9.15039 5.89243 8.84005C5.74907 8.52971 5.47974 8.37049 5.13222 8.36942C3.88004 8.36618 2.62768 8.36618 1.37514 8.36942C1.15033 8.36888 0.951049 8.4412 0.831587 8.55994ZM4.55011 1.5317C4.4695 1.50197 4.38567 1.48168 4.30033 1.47125C3.60419 1.46694 2.90787 1.46694 2.21137 1.47125C2.0034 1.47125 1.90566 1.57272 1.90186 1.77997C1.89806 1.98723 1.89806 2.18476 1.90186 2.38662C1.90566 2.58847 2.0034 2.69912 2.20811 2.7002C2.90932 2.70343 3.61016 2.70343 4.31064 2.7002C4.51101 2.7002 4.60984 2.59603 4.61364 2.39795C4.61799 2.18692 4.61962 1.97535 4.61364 1.76432C4.60127 1.68467 4.57996 1.60664 4.55011 1.5317Z" fill="black" fill-opacity="0.8"/>
</svg>
