<svg width="49" height="62" viewBox="0 0 49 62" fill="none" xmlns="http://www.w3.org/2000/svg">
<path d="M31.9277 35.8974C31.9277 28.7731 20.8087 8.04401 17.7401 2.45893C17.6637 2.31995 17.5513 2.20404 17.4148 2.12331C17.2782 2.04259 17.1225 2 16.9639 2C16.8052 2 16.6495 2.04259 16.513 2.12331C16.3764 2.20404 16.264 2.31995 16.1876 2.45893C13.119 8.04401 2 28.7731 2 35.8974C2 44.1615 8.69925 50.8614 16.9639 50.8614C25.2285 50.8614 31.9277 44.1615 31.9277 35.8974Z" stroke="black" stroke-opacity="0.4" stroke-width="3" stroke-linecap="round" stroke-linejoin="round"/>
<path d="M46.8916 44.831C46.8916 37.7067 35.7726 16.9776 32.704 11.3925C32.6277 11.2534 32.5153 11.1373 32.3788 11.0565C32.2422 10.9756 32.0864 10.933 31.9277 10.933C31.769 10.933 31.6132 10.9756 31.4767 11.0565C31.3401 11.1373 31.2278 11.2534 31.1514 11.3925C28.0828 16.9776 16.9639 37.7067 16.9639 44.831C16.9639 53.0951 23.6637 59.795 31.9277 59.795C40.1917 59.795 46.8916 53.0951 46.8916 44.831Z" stroke="black" stroke-opacity="0.4" stroke-width="3" stroke-linecap="round" stroke-linejoin="round"/>
</svg>
