<svg width="51" height="51" viewBox="0 0 51 51" fill="none" xmlns="http://www.w3.org/2000/svg">
<path d="M2.78426 22.9607H7.72335C10.5282 22.9607 12.8019 25.2343 12.8019 28.0392V30.5785C12.8019 33.3834 15.0757 35.6571 17.8805 35.6571C20.6854 35.6571 22.9591 37.9308 22.9591 40.7357V48.2141M15.3412 5.02193V8.9946C15.3412 12.5006 18.1834 15.3428 21.6894 15.3428H22.9591C25.764 15.3428 28.0376 17.6166 28.0376 20.4214C28.0376 23.2263 30.3113 25.5 33.1162 25.5C35.9211 25.5 38.1948 23.2263 38.1948 20.4214C38.1948 17.6166 40.4685 15.3428 43.2734 15.3428H45.9764M33.1162 47.0532V40.7357C33.1162 37.9308 35.3899 35.6571 38.1948 35.6571H45.9764L33.1162 47.0532ZM48.3519 25.5C48.3519 38.1217 38.1201 48.3535 25.4984 48.3535C12.8767 48.3535 2.64478 38.1217 2.64478 25.5C2.64478 12.8783 12.8767 2.64638 25.4984 2.64638C38.1201 2.64638 48.3519 12.8783 48.3519 25.5Z" stroke="black" stroke-opacity="0.6" stroke-width="5" stroke-linecap="round" stroke-linejoin="round"/>
</svg>
