<svg width="62" height="62" viewBox="0 0 62 62" fill="none" xmlns="http://www.w3.org/2000/svg">
<path d="M59.8544 30.9269C59.8544 46.9029 46.9034 59.8539 30.9275 59.8539M59.8544 30.9269C59.8544 14.951 46.9034 2 30.9275 2M59.8544 30.9269H2.00055M30.9275 59.8539C14.9516 59.8539 2.00055 46.9029 2.00055 30.9269M30.9275 59.8539V2M30.9275 59.8539C30.9275 59.8539 14.1803 54.516 14.1803 30.9269C14.1803 7.33785 30.9275 2 30.9275 2M30.9275 59.8539C30.9275 59.8539 47.6747 54.516 47.6747 30.9269C47.6747 7.33785 30.9275 2 30.9275 2M2.00055 30.9269C2.00055 14.951 14.9516 2 30.9275 2M7.35818 14.1549C7.35818 14.1549 14.5273 20.9057 30.9275 20.9057C47.3277 20.9057 54.4968 14.1549 54.4968 14.1549M7.35818 47.699C7.35818 47.699 14.1407 41.3336 30.9275 41.3336C47.7143 41.3336 54.4968 47.699 54.4968 47.699" stroke="black" stroke-opacity="0.8" stroke-width="3" stroke-linecap="round" stroke-linejoin="round"/>
</svg>
