<svg width="61" height="62" viewBox="0 0 61 62" fill="none" xmlns="http://www.w3.org/2000/svg">
<path d="M40.3469 34.2322L41.393 42.4261M41.393 42.4261C56.9112 24.5926 59.4032 7.96217 54.0966 3.71195C48.79 -0.53826 33.8344 2.66159 17.6728 18.5674C1.51123 34.4732 -1.14236 50.3789 5.12955 55.1988C11.4015 60.0186 22.9794 54.2349 22.9794 54.2349M41.393 42.4261L48.7894 42.426M43.724 12.7814L43.9669 21.7005C25.3918 0.492941 10.1949 2.66159 6.81781 6.75852C3.44067 10.8554 2.47594 25.3155 20.528 43.9612C38.5801 62.607 52.4077 61.4626 56.6276 57.1143C60.8474 52.7659 56.6276 38.8087 56.6276 38.8087M35.0403 21.4595L43.9652 21.7005" stroke="#EAED5D" stroke-width="3" stroke-linecap="round" stroke-linejoin="round"/>
</svg>
